<svg xmlns="http://www.w3.org/2000/svg" viewBox="0 0 390.19 390.2"><defs><style>.cls-1{fill:#707070;}</style></defs><g id="Capa_2" data-name="Capa 2"><g id="Capa_1-2" data-name="Capa 1"><path class="cls-1" d="M388.18,131.27c-.12-.12-.25-.2-.37-.3L340.09,83.22A23.87,23.87,0,0,1,307,50.1L258.92,2a6.89,6.89,0,0,0-9.73,0L2,249.18v0a6.88,6.88,0,0,0,0,9.73H2L50.11,307a23.88,23.88,0,0,1,33.13,33.09l47.47,47.42a5.28,5.28,0,0,0,.56.69,6.87,6.87,0,0,0,9.71,0l0,0h0L388.18,141a6.88,6.88,0,0,0,0-9.73h0M333.69,141,141,333.69a6.87,6.87,0,0,1-9.71,0h0L56.51,258.92a6.87,6.87,0,0,1,0-9.71h0L249.2,56.51a6.88,6.88,0,0,1,9.72,0l74.77,74.77a6.87,6.87,0,0,1,0,9.71h0"/><path class="cls-1" d="M225.38,232.59l12.05-19.46a3.46,3.46,0,0,0-2.63-5.1l-22.86-.92a3.17,3.17,0,0,0-2.93,4.78l3.55,6.65a27.93,27.93,0,0,1-4.63,1.54c-7.42,1.85-14.83.31-22.86-5.87l38.61-38.61a15.87,15.87,0,0,0,17.15-3.55,16,16,0,0,0,0-22.55,15.89,15.89,0,0,0-22.55,0,16.08,16.08,0,0,0-3.56,17.14l-38.61,38.61c-6.18-8-7.72-15.44-5.87-22.86a42.59,42.59,0,0,1,1.55-4.63l6.64,3.55a3.27,3.27,0,0,0,4.79-2.93L182,155.52a3.26,3.26,0,0,0-5.1-2.63l-19.46,11.74a3.34,3.34,0,0,0,.16,5.72l5.25,2.78a37.9,37.9,0,0,0-2.63,7c-3.09,12,.62,24.71,12.67,36.76s24.56,15.6,36.76,12.66a31.11,31.11,0,0,0,7-2.62l2.78,5.25a3.56,3.56,0,0,0,6,.46m-.77-67.19a6.33,6.33,0,1,1,9,0,6.33,6.33,0,0,1-9,0"/></g></g></svg>